# xmcd
#
# Track frame offsets:
#	150
#	18972
#	38258
#	64488
#	79562
#	94381
#	109714
#	128191
#	140390
#	158188
#
# Disc length: 2374 seconds
#
# Revision: 0
# Processed by: cddbd v1.5.2PL0 Copyright (c) Steve Scherf et al.
# Submitted via: dBpowerAMP V4.0
#
DISCID=7909440a
DTITLE=Rodney Crowell - Super Hits
DYEAR=2007
DGENRE=Country
TTITLE0=Still Learning How To Fly
TTITLE1=This Too Will Pass
TTITLE2=Don't Get Me Started
TTITLE3=It's Such A Small World
TTITLE4=I Couldn't Leave You If I Tried
TTITLE5=If Looks Could Kill
TTITLE6=Things I Wish I'd Said
TTITLE7=It Don't Get Better Than This
TTITLE8=What Kind Of Love
TTITLE9=After All This Time
EXTD=
EXTT0=
EXTT1=
EXTT2=
EXTT3=
EXTT4=
EXTT5=
EXTT6=
EXTT7=
EXTT8=
EXTT9=
PLAYORDER=
